<svg width="24" height="24" viewBox="0 0 24 24" fill="none" xmlns="http://www.w3.org/2000/svg">
<path fill-rule="evenodd" clip-rule="evenodd" d="M9.29566 15.499C4.82133 15.499 1 16.1753 1 18.885C1 21.5948 4.79806 22.2955 9.29566 22.2955C13.7712 22.2955 17.5913 21.618 17.5913 18.9095C17.5913 16.2009 13.7944 15.499 9.29566 15.499Z" stroke="white" stroke-width="2" stroke-linecap="round" stroke-linejoin="round"/>
<path fill-rule="evenodd" clip-rule="evenodd" d="M9.29569 11.6341C12.2324 11.6341 14.6127 9.25376 14.6127 6.31704C14.6127 3.38033 12.2324 1 9.29569 1C6.36014 1 3.97981 3.38033 3.97981 6.31704C3.96933 9.24328 6.33221 11.6236 9.25961 11.6341H9.29569Z" stroke="white" stroke-width="2" stroke-linecap="round" stroke-linejoin="round"/>
<path d="M20.1522 7.88965V12.5572" stroke="white" stroke-width="2" stroke-linecap="round" stroke-linejoin="round"/>
<path d="M22.5335 10.2236H17.7729" stroke="white" stroke-width="2" stroke-linecap="round" stroke-linejoin="round"/>
</svg>
