<svg width="105" height="46" viewBox="0 0 105 46" fill="none" xmlns="http://www.w3.org/2000/svg">
<g opacity="0.4">
<g opacity="0.5" clip-path="url(#clip0_0_753)">
<path d="M52.669 8.91342C75.9026 8.91342 94.7268 25.1467 94.7268 45.1824L104.936 45.1824C104.936 20.3206 81.5329 0.138671 52.669 0.13867C23.8051 0.138668 0.401977 20.3206 0.401976 45.2116L10.5773 45.2116C10.6112 25.176 29.4354 8.91342 52.669 8.91342Z" fill="#FC3E00"/>
<path d="M52.6701 23.0692C66.8476 23.0692 78.3457 32.9846 78.3457 45.2108L84.5526 45.2108C84.5526 30.0305 70.2733 17.7166 52.6701 17.7166C35.0668 17.7166 20.7875 30.0305 20.7875 45.2108L26.9944 45.2108C27.0284 32.9846 38.4925 23.0692 52.6701 23.0692Z" fill="#5073B3"/>
</g>
</g>
<defs>
<clipPath id="clip0_0_753">
<rect width="45.073" height="104.5" fill="white" transform="translate(104.936 0.138672) rotate(90)"/>
</clipPath>
</defs>
</svg>
