<svg width="104" height="52" viewBox="0 0 104 52" fill="none" xmlns="http://www.w3.org/2000/svg">
<g opacity="0.3">
<g opacity="0.5" clip-path="url(#clip0_1_747)">
<path d="M52.3202 41.8767C29.4202 41.8767 10.8661 23.1486 10.8661 0.0337463L0.803465 0.0337468C0.803466 28.7164 23.8707 52 52.3202 52C80.7697 52 103.837 28.7164 103.837 -4.10463e-06L93.8077 -3.66624e-06C93.7743 23.1149 75.2202 41.8767 52.3202 41.8767Z" fill="#FC3E00"/>
<path d="M52.3192 25.5455C38.3451 25.5455 27.0121 14.1062 27.0121 0.00103362L20.8943 0.00103389C20.8943 17.5143 34.9686 31.7207 52.3192 31.7207C69.6697 31.7207 83.744 17.5143 83.744 0.00103114L77.6262 0.00103141C77.5928 14.1062 66.2932 25.5455 52.3192 25.5455Z" fill="#5073B3"/>
</g>
</g>
<defs>
<clipPath id="clip0_1_747">
<rect width="52" height="103" fill="white" transform="translate(0.803467 52) rotate(-90)"/>
</clipPath>
</defs>
</svg>
